HIERARCHY
ROOT Hips
{
	OFFSET 0.00000 0.00000 0.00000
	CHANNELS 6 Xposition Yposition Zposition Zrotation Yrotation Xrotation 
	JOINT LHipJoint
	{
		OFFSET 0 0 0
		CHANNELS 3 Zrotation Yrotation Xrotation
		JOINT LeftUpLeg
		{
			OFFSET 1.57338 -1.94743 0.52196
			CHANNELS 3 Zrotation Yrotation Xrotation
			JOINT LeftLeg
			{
				OFFSET 2.60333 -7.15259 0.00000
				CHANNELS 3 Zrotation Yrotation Xrotation
				JOINT LeftFoot
				{
					OFFSET 2.77855 -7.63400 0.00000
					CHANNELS 3 Zrotation Yrotation Xrotation
					JOINT LeftToeBase
					{
						OFFSET 0.19847 -0.54529 2.28466
						CHANNELS 3 Zrotation Yrotation Xrotation
						End Site
						{
							OFFSET 0.00000 -0.00000 1.17993
						}
					}
				}
			}
		}
	}
	JOINT RHipJoint
	{
		OFFSET 0 0 0
		CHANNELS 3 Zrotation Yrotation Xrotation
		JOINT RightUpLeg
		{
			OFFSET -1.61527 -1.94743 0.52196
			CHANNELS 3 Zrotation Yrotation Xrotation
			JOINT RightLeg
			{
				OFFSET -2.53829 -6.97390 0.00000
				CHANNELS 3 Zrotation Yrotation Xrotation
				JOINT RightFoot
				{
					OFFSET -2.80762 -7.71387 0.00000
					CHANNELS 3 Zrotation Yrotation Xrotation
					JOINT RightToeBase
					{
						OFFSET -0.30536 -0.83898 2.28801
						CHANNELS 3 Zrotation Yrotation Xrotation
						End Site
						{
							OFFSET -0.00000 -0.00000 1.21323
						}
					}
				}
			}
		}
	}
	JOINT LowerBack
	{
		OFFSET 0 0 0
		CHANNELS 3 Zrotation Yrotation Xrotation
		JOINT Spine
		{
			OFFSET -0.04381 1.99497 -0.19778
			CHANNELS 3 Zrotation Yrotation Xrotation
			JOINT Spine1
			{
				OFFSET -0.01959 2.01295 -0.04372
				CHANNELS 3 Zrotation Yrotation Xrotation
				JOINT Neck
				{
					OFFSET 0 0 0
					CHANNELS 3 Zrotation Yrotation Xrotation
					JOINT Neck1
					{
						OFFSET -0.05459 1.76913 0.09708
						CHANNELS 3 Zrotation Yrotation Xrotation
						JOINT Head
						{
							OFFSET 0.09461 1.77368 -0.11172
							CHANNELS 3 Zrotation Yrotation Xrotation
							End Site
							{
								OFFSET 0.03812 1.78157 -0.04834
							}
						}
					}
				}
				JOINT LeftShoulder
				{
					OFFSET 0 0 0
					CHANNELS 3 Zrotation Yrotation Xrotation
					JOINT LeftArm
					{
						OFFSET 3.50922 1.24034 -0.28866
						CHANNELS 3 Zrotation Yrotation Xrotation
						JOINT LeftForeArm
						{
							OFFSET 5.40188 -0.00000 0.00000
							CHANNELS 3 Zrotation Yrotation Xrotation
							JOINT LeftHand
							{
								OFFSET 3.68559 -0.00000 0.00000
								CHANNELS 3 Zrotation Yrotation Xrotation
								JOINT LeftFingerBase
								{
									OFFSET 0 0 0
									CHANNELS 3 Zrotation Yrotation Xrotation
									JOINT LeftHandIndex1
									{
										OFFSET 0.61753 -0.00000 0.00000
										CHANNELS 3 Zrotation Yrotation Xrotation
										End Site
										{
											OFFSET 0.49787 -0.00000 0.00000
										}
									}
								}
								JOINT LThumb
								{
									OFFSET 0 0 0
									CHANNELS 3 Zrotation Yrotation Xrotation
									End Site
									{
										OFFSET 0.50547 -0.00000 0.50547
									}
								}
							}
						}
					}
				}
				JOINT RightShoulder
				{
					OFFSET 0 0 0
					CHANNELS 3 Zrotation Yrotation Xrotation
					JOINT RightArm
					{
						OFFSET -2.95373 1.39649 -0.27346
						CHANNELS 3 Zrotation Yrotation Xrotation
						JOINT RightForeArm
						{
							OFFSET -6.10670 -0.00000 -0.00000
							CHANNELS 3 Zrotation Yrotation Xrotation
							JOINT RightHand
							{
								OFFSET -3.63052 -0.00000 0.00000
								CHANNELS 3 Zrotation Yrotation Xrotation
								JOINT RightFingerBase
								{
									OFFSET 0 0 0
									CHANNELS 3 Zrotation Yrotation Xrotation
									JOINT RightHandIndex1
									{
										OFFSET -0.58385 -0.00000 0.00000
										CHANNELS 3 Zrotation Yrotation Xrotation
										End Site
										{
											OFFSET -0.47071 -0.00000 0.00000
										}
									}
								}
								JOINT RThumb
								{
									OFFSET 0 0 0
									CHANNELS 3 Zrotation Yrotation Xrotation
									End Site
									{
										OFFSET -0.47790 -0.00000 0.47790
									}
								}
							}
						}
					}
				}
			}
		}
	}
}
MOTION
Frames: 6
Frame Time: .0083333
0.7532 15.4947 -11.9538 9.8129 0.6934 18.9667 0.0000 0.0000 0.0000 -22.1000 -20.5300 -47.9730 16.3622 19.6797 79.3091 3.0027 -9.4262 -31.2944 0.3729 -3.9223 -10.8581 0.0000 0.0000 0.0000 -3.6569 16.5982 -54.4779 -19.6688 -19.9974 89.0317 -3.4882 2.0825 -34.9069 -1.8197 8.4800 -24.1818 -3.6302 -0.0051 25.3592 -1.7655 -1.1637 3.6570 0.5014 -0.4356 -10.0226 -7.8690 -3.4071 -15.5511 8.3480 -3.1233 -8.4517 4.0337 -1.2552 0.2466 0.0000 -0.0000 0.0000 -86.5533 -11.1598 27.5682 13.9770 -22.7018 -2.8192 -0.0000 0.0000 -8.2731 24.7981 24.5800 10.8788 -7.1250 0.0000 -0.0000 -5.1499 56.6482 -1.4732 0.0000 -0.0000 0.0000 81.3228 10.6044 22.2646 -13.6950 22.2969 -2.7113 0.0000 0.0000 1.0731 -33.5776 -0.9045 0.6004 7.1250 -0.0000 -0.0000 -5.5806 -31.0374 -1.9123
0.7605 15.4377 -11.8693 10.0431 0.7951 18.6793 0.0000 0.0000 0.0000 -22.5167 -20.6174 -47.4290 16.5532 19.7127 79.8756 3.0773 -9.4285 -31.6975 0.4060 -4.0908 -11.3321 0.0000 0.0000 0.0000 -3.8806 16.2100 -54.3693 -20.0172 -20.0000 90.0503 -3.4310 2.1000 -34.6055 -1.8533 8.5536 -24.4086 -3.7553 -0.0163 25.0643 -1.7926 -1.2034 3.5645 0.5539 -0.4507 -9.9689 -7.7990 -3.4303 -15.9274 8.1337 -3.1571 -8.1160 3.9379 -1.2689 0.4186 0.0000 0.0000 0.0000 -86.7969 -12.7220 28.9753 15.0929 -24.2754 -3.2641 -0.0000 0.0000 -9.8256 24.9817 24.7083 11.0206 -7.1250 0.0000 -0.0000 -4.9996 56.8230 -1.4512 0.0000 0.0000 0.0000 81.3740 11.9206 22.6909 -14.6012 23.5876 -3.0646 0.0000 0.0000 0.0543 -33.7833 -0.3796 0.2540 7.1250 -0.0000 -0.0000 -5.7097 -30.4099 -2.0431
0.7588 15.3826 -11.7820 9.9086 0.9780 18.2749 0.0000 0.0000 0.0000 -22.4821 -20.5955 -46.8472 16.7631 19.7469 80.4974 3.1601 -9.4406 -32.1401 0.4673 -4.3845 -12.1609 0.0000 0.0000 0.0000 -3.5165 15.9885 -53.9083 -20.2955 -19.9979 90.8641 -3.3924 1.8656 -34.4608 -2.0189 8.9054 -25.4999 -3.5870 -0.0126 24.8634 -1.7461 -1.1441 3.4468 0.4885 -0.4274 -10.0006 -7.7881 -3.4431 -16.1970 8.0562 -3.1710 -7.7914 3.9056 -1.2714 0.5725 -0.0000 0.0000 0.0000 -87.0068 -14.2351 30.2190 16.4816 -26.1693 -3.8559 -0.0000 0.0000 -11.3667 24.9550 23.9486 10.6968 -7.1250 0.0000 -0.0000 -4.7488 56.0167 -1.2854 -0.0000 0.0000 0.0000 81.5638 13.2275 22.4529 -15.6637 25.0625 -3.5023 0.0000 0.0000 0.2126 -32.6941 -1.1103 0.7125 7.1250 -0.0000 -0.0000 -4.8887 -31.2768 -1.6454
0.7408 15.3301 -11.6896 8.7728 1.1392 17.6967 0.0000 0.0000 0.0000 -21.2756 -20.0271 -46.3690 17.0236 19.7863 81.2678 3.2387 -9.7356 -32.5451 0.5355 -4.6891 -13.0239 0.0000 0.0000 0.0000 -1.8756 16.4840 -53.1191 -20.4955 -19.9941 91.4488 -3.3862 1.5189 -34.5157 -2.1237 9.1190 -26.1684 -2.7916 0.0433 24.5919 -1.4269 -0.8182 3.4173 0.2809 -0.3010 -9.9073 -7.7606 -3.4579 -16.6468 8.2746 -3.1543 -7.4034 3.6168 -1.2491 0.6778 -0.0000 -0.0000 0.0000 -87.1711 -15.7718 31.3705 18.2163 -28.4332 -4.6518 -0.0000 0.0000 -13.1261 24.7145 23.8406 10.5384 -7.1250 0.0000 -0.0000 -4.9675 55.8521 -1.3250 -0.0000 -0.0000 0.0000 81.6615 14.6033 22.4626 -16.8245 26.6259 -4.0084 0.0000 0.0000 0.2107 -31.5211 -2.4783 1.5191 7.1250 -0.0000 -0.0000 -4.0014 -32.8682 -1.1918
0.7319 15.2851 -11.5986 8.5215 1.2918 17.3283 0.0000 0.0000 0.0000 -21.0768 -19.9627 -45.7791 17.2253 19.8144 81.8633 3.3154 -9.8865 -32.9409 0.5813 -4.8820 -13.5722 0.0000 0.0000 0.0000 -1.3912 16.5012 -52.5716 -20.6772 -19.9890 91.9802 -3.3909 1.6352 -34.5105 -2.1685 9.2087 -26.4502 -2.6701 0.0861 24.1354 -1.3285 -0.7052 3.3689 0.2829 -0.2532 -9.7231 -7.6670 -3.4867 -16.9709 8.1173 -3.1927 -7.2596 3.5471 -1.2657 0.7643 -0.0000 -0.0000 0.0000 -87.2576 -17.4748 32.6425 20.1978 -30.8799 -5.6325 -0.0000 0.0000 -15.0092 24.8858 24.5616 10.9140 -7.1250 0.0000 -0.0000 -5.0482 56.6478 -1.4439 -0.0000 -0.0000 0.0000 81.5750 16.0503 22.9195 -18.0232 28.1869 -4.5602 0.0000 -0.0000 -0.5127 -31.5938 -2.4523 1.5075 7.1250 -0.0000 -0.0000 -4.0596 -32.8395 -1.2120
0.7233 15.2453 -11.5055 8.3680 1.5245 16.9243 0.0000 0.0000 0.0000 -20.9956 -20.0229 -45.0714 17.3911 19.8360 82.3519 3.3767 -10.0233 -33.2539 0.6372 -5.1071 -14.2144 0.0000 0.0000 0.0000 -0.9767 16.4555 -51.8570 -20.8132 -19.9841 92.3783 -3.3921 1.7403 -34.4903 -2.2447 9.3581 -26.9221 -2.6624 0.1389 23.8279 -1.1858 -0.6121 3.2371 0.4061 -0.2070 -9.7083 -7.6611 -3.4994 -16.9851 7.6091 -3.2362 -7.2103 3.7140 -1.2984 0.8918 0.0000 -0.0000 0.0000 -87.2653 -19.3544 34.1247 22.2623 -33.2722 -6.7292 -0.0000 0.0000 -16.6167 25.4990 25.4808 11.5955 -7.1250 0.0000 -0.0000 -4.7330 57.7511 -1.4795 0.0000 -0.0000 0.0000 81.3016 17.2967 23.4084 -19.5086 30.0458 -5.2831 0.0000 -0.0000 -1.3229 -32.0059 -0.8417 0.5260 7.1250 -0.0000 -0.0000 -4.3275 -30.9558 -1.4889
